Coordinates
version=1
nRows=31
nColumns=33
inDegrees=yes

Units are S.I. units (second, meters, Newtons, ...)
Angles are in degrees.

endheader
time	ground_thorax_rot_x	ground_thorax_rot_y	ground_thorax_rot_z	ground_thorax_tx	ground_thorax_ty	ground_thorax_tz	clav_prot_r	clav_elev_r	scapula_abduction_r	scapula_elevation_r	scapula_upward_rot_r	scapula_winging_r	shoulder_elv_r	plane_of_elev_r	axial_rot_r	elbow_flexion_r	pro_sup_r	wrist_flex_r	wrist_dev_r	clav_prot_l	clav_elev_l	scapula_abduction_l	scapula_elevation_l	scapula_upward_rot_l	scapula_winging_l	shoulder_elv_l	plane_of_elev_l	axial_rot_l	elbow_flexion_l	pro_sup_l	wrist_flex_l	wrist_dev_l	
9.3300	-40.335827	-6.801868	5.047039	-168.440115	883.136369	-8.865968	9.457216	-45.000000	39.306630	-45.000000	-31.195673	2421.208048	432.080251	30.991738	84.489273	1458.060662	69.925844	17.983686	3.757490	15.825327	39.146277	-40.898893	-45.000000	-43.598009	806.068313	-2975.293933	139.267738	159.261359	14.434309	57.698529	3.817547	-21.922014	
9.3400	-40.393465	-6.477011	4.690019	-165.746182	885.441898	-8.775000	9.360254	-45.000000	39.752379	-45.000000	-29.730783	2421.169644	432.233661	31.033385	84.314765	1458.239214	71.562284	17.896969	3.624630	15.870917	39.314921	-41.203347	-45.000000	-42.950711	806.270628	-2975.172761	139.143721	159.792546	14.464530	57.820256	3.776755	-21.921374	
9.3500	-40.455505	-6.156777	4.341343	-162.934975	887.584363	-8.687692	9.251854	-45.000000	40.187547	-45.000000	-28.257782	2421.148162	432.385477	31.072633	84.112699	1458.413289	73.089850	17.799882	3.493005	15.865491	39.493785	-41.479239	-45.000000	-42.198286	806.449469	-2975.075158	139.051264	160.306562	14.478711	57.808050	3.757430	-21.930565	
9.3600	-40.519663	-5.838716	4.002450	-160.007725	889.544566	-8.604912	9.136549	-45.000000	40.614063	-45.000000	-26.777818	2421.139764	432.528780	31.110441	83.885265	1458.576082	74.489904	17.696417	3.367659	15.835031	39.683096	-41.739531	-45.000000	-41.379198	806.609672	-2974.998418	138.972485	160.820769	14.473563	57.637417	3.764546	-21.950850	
9.3700	-40.585999	-5.527024	3.674136	-156.966709	891.302643	-8.526809	9.004725	-45.000000	41.040063	-45.000000	-25.265457	2421.147445	432.655598	31.132904	83.650802	1458.719895	75.776898	17.596857	3.255483	15.834510	39.886712	-41.999231	-45.000000	-40.534396	806.755097	-2974.946707	138.900447	161.359481	14.443481	57.286591	3.793350	-21.969333	
9.3800	-40.652225	-5.222707	3.359977	-153.814918	892.837960	-8.452836	8.864068	-45.000000	41.461603	-45.000000	-23.741263	2421.164872	432.762571	31.149398	83.403889	1458.851094	76.953358	17.496769	3.153064	15.842018	40.095699	-42.258874	-45.000000	-39.681190	806.885472	-2974.915070	138.826158	161.933222	14.387047	56.731396	3.854186	-21.996240	
9.3900	-40.716465	-4.929260	3.061836	-150.556117	894.128911	-8.381712	8.713348	-45.000000	41.881166	-45.000000	-22.212151	2421.195224	432.847709	31.157260	83.142495	1458.965707	78.029977	17.400839	3.063175	15.869171	40.308997	-42.519007	-45.000000	-38.835641	806.998391	-2974.903847	138.746697	162.552840	14.300432	55.945394	3.950792	-22.030326	
9.4000	-40.776774	-4.640560	2.776995	-147.194298	895.153657	-8.311356	8.559893	-45.000000	42.293889	-45.000000	-20.693246	2421.230761	432.907270	31.167056	82.853502	1459.071257	79.000919	17.307210	2.982830	15.888148	40.523877	-42.779657	-45.000000	-37.989399	807.095331	-2974.914241	138.658846	163.201858	14.180891	54.892684	4.096631	-22.082604	
9.4100	-40.832983	-4.358552	2.504747	-143.733427	895.890881	-8.238903	8.403806	-45.000000	42.698984	-45.000000	-19.193878	2421.273952	432.937696	31.178952	82.533417	1459.165331	79.864655	17.219114	2.914165	15.899897	40.740664	-43.039396	-44.999999	-37.145507	807.176200	-2974.949043	138.563556	163.873570	14.024965	53.534936	4.299071	-22.153252	
9.4200	-40.883127	-4.077549	2.240146	-140.176948	896.321179	-8.160896	8.243415	-45.000000	43.090836	-45.000000	-17.702635	2421.320550	432.937789	31.192636	82.192265	1459.257635	80.624726	17.140515	2.855595	15.908386	40.959331	-43.297189	-44.999999	-36.298167	807.230616	-2975.008964	138.469294	164.558476	13.829221	51.827039	4.566334	-22.242790	
9.4300	-40.927139	-3.804970	1.985206	-136.527160	896.428245	-8.073670	8.077370	-45.000000	43.471678	-45.000000	-16.231123	2421.377751	432.903576	31.202978	81.837833	1459.339760	81.291429	17.074652	2.811411	15.924849	41.177998	-43.551718	-44.999998	-35.462809	807.258559	-2975.094468	138.376154	165.257559	13.592002	49.735865	4.902723	-22.344103	
9.4400	-40.963794	-3.545694	1.742698	-132.785700	896.199996	-7.973925	7.906419	-45.000000	43.836660	-45.000000	-14.795981	2421.448849	432.833715	31.209751	81.471731	1459.413178	81.872123	17.021422	2.781717	15.944475	41.395383	-43.800300	-44.999996	-34.644363	807.260210	-2975.206910	138.283785	165.962631	13.313290	47.253623	5.315086	-22.453596	
9.4500	-40.994440	-3.314601	1.521732	-128.953137	895.629181	-7.859298	7.737320	-45.000000	44.175720	-45.000000	-13.460016	2421.546609	432.725528	31.221858	81.087813	1459.471052	82.364702	16.972289	2.767026	15.937329	41.601760	-44.033813	-44.999993	-33.860069	807.246828	-2975.342373	138.179489	166.662517	13.001962	44.411893	5.805257	-22.566666	
9.4600	-41.017379	-3.112788	1.328449	-125.030168	894.713808	-7.728834	7.573957	-45.000000	44.467786	-45.000000	-12.268231	2421.680030	432.578461	31.247144	80.681399	1459.510696	82.767331	16.917154	2.766282	15.875873	41.791387	-44.249113	-44.999988	-33.110146	807.217609	-2975.499116	138.060138	167.328878	12.666450	41.286721	6.373818	-22.676687	
9.4700	-41.030961	-2.920115	1.152434	-121.017381	893.456991	-7.583158	7.393272	-45.000000	44.696579	-45.000000	-11.174366	2421.859182	432.394868	31.264718	80.273925	1459.530894	83.083482	16.876865	2.782621	15.816887	41.976861	-44.448055	-44.999979	-32.374279	807.144864	-2975.677278	137.946395	167.964936	12.311736	37.903451	6.997026	-22.760117	
9.4800	-41.032786	-2.738310	0.997939	-116.916697	891.866841	-7.424353	7.194033	-45.000000	44.853871	-45.000000	-10.178422	2422.089376	432.182869	31.267940	79.860794	1459.535912	83.315086	16.860703	2.816410	15.770909	42.164322	-44.623809	-44.999962	-31.646549	807.020318	-2975.879677	137.842839	168.557045	11.945043	34.332822	7.657429	-22.801580	
9.4900	-41.023261	-2.569857	0.860718	-112.730707	889.955542	-7.255493	6.975981	-45.000000	44.947056	-45.000000	-9.267594	2422.376460	431.948369	31.247766	79.447848	1459.531806	83.462856	16.886348	2.869090	15.764734	42.358194	-44.767950	-44.999931	-30.928431	806.837216	-2976.103066	137.751529	169.104296	11.576517	30.652697	8.323216	-22.784188	
9.5000	-41.003583	-2.426278	0.747606	-108.463815	887.738643	-7.080016	6.757138	-45.000000	44.988274	-45.000000	-8.477605	2422.709500	431.689225	31.219202	79.010637	1459.518073	83.515775	16.936028	2.937251	15.761628	42.549466	-44.874714	-44.999877	-30.237922	806.600741	-2976.339925	137.663955	169.598816	11.218778	26.991617	8.987183	-22.712227	
9.5100	-40.976896	-2.307215	0.653130	-104.121531	885.233785	-6.900996	6.538913	-45.000000	45.000000	-45.000000	-7.777959	2423.080029	431.404727	31.173395	78.546606	1459.495892	83.460087	17.021744	3.022598	15.793371	42.741400	-44.948119	-44.999779	-29.583181	806.308736	-2976.588448	137.584139	170.060023	10.878285	23.438100	9.618317	-22.580932	
9.5200	-40.943594	-2.233416	0.593923	-99.710962	882.459777	-6.720532	6.348655	-45.000000	45.000000	-45.000000	-7.231816	2423.473495	431.093794	31.134242	78.031449	1459.457448	83.268756	17.116211	3.122562	15.803139	42.915105	-44.986861	-44.999604	-29.003975	805.982648	-2976.842016	137.488755	170.497737	10.569539	20.133518	10.213499	-22.407911	
9.5300	-40.906717	-2.199190	0.562068	-95.240019	879.435446	-6.539377	6.188209	-45.000000	45.000000	-45.000000	-6.829664	2423.884276	430.753484	31.104691	77.466325	1459.397469	82.910738	17.217106	3.239182	15.790635	43.068068	-45.000000	-44.999291	-28.505066	805.630392	-2977.097754	137.373211	170.923469	10.297878	17.188561	10.754231	-22.203808	
9.5400	-40.869359	-2.199741	0.562389	-90.717667	876.179459	-6.356891	6.069613	-45.000000	45.000000	-45.000000	-6.583529	2424.291796	430.371942	31.104646	76.852184	1459.303515	82.355822	17.295159	3.371106	15.716854	43.188813	-45.000000	-44.998731	-28.099280	805.260081	-2977.348827	137.231046	171.335971	10.064646	14.687805	11.253308	-21.986517	
9.5500	-40.830279	-2.190486	0.557729	-86.153641	872.710429	-6.171264	5.940001	-45.000000	45.000000	-45.000000	-6.351116	2424.705548	429.960083	31.090550	76.213944	1459.174803	81.565863	17.392492	3.529039	15.689671	43.311662	-45.000000	-44.997726	-27.731459	804.837434	-2977.604977	137.098383	171.783630	9.856240	12.607500	11.682523	-21.755471	
9.5600	-40.790227	-2.180690	0.555946	-81.558173	869.047842	-5.979837	5.806770	-45.000000	45.000000	-45.000000	-6.145776	2425.127071	429.526778	31.066713	75.560289	1459.011477	80.505445	17.510295	3.716863	15.696818	43.431822	-45.000000	-44.995928	-27.415937	804.377956	-2977.867814	136.964515	172.267559	9.668664	10.935578	12.044064	-21.520879	
9.5700	-40.749379	-2.147971	0.534088	-76.942083	865.213186	-5.779452	5.640548	-45.000000	45.000000	-45.000000	-5.909073	2425.564259	429.077107	31.018124	74.896421	1458.806086	79.119250	17.660462	3.943375	15.771455	43.564681	-45.000000	-44.992701	-27.117508	803.866195	-2978.137150	136.845389	172.811633	9.491675	9.639970	12.342741	-21.286895	
9.5800	-40.710465	-2.113117	0.514515	-72.316960	861.231468	-5.566652	5.471776	-45.000000	45.000000	-45.000000	-5.697001	2426.008009	428.610136	30.964710	74.215486	1458.552428	77.369754	17.824044	4.211131	15.869703	43.692558	-45.000000	-44.986937	-26.869783	803.323448	-2978.405998	136.724413	173.394447	9.320153	8.686756	12.599511	-21.059734	
9.5900	-40.670289	-2.074923	0.495155	-67.695598	857.132390	-5.337795	5.298981	-45.000000	45.000000	-45.000000	-5.506236	2426.469707	428.141419	30.899474	73.517486	1458.247032	75.232877	18.012442	4.527850	16.011539	43.818474	-45.000000	-44.976570	-26.676047	802.753253	-2978.670589	136.597843	174.023380	9.147834	8.016102	12.814298	-20.840098	
9.6000	-40.628757	-2.059236	0.499131	-63.092226	852.951091	-5.089056	5.160198	-45.000000	45.000000	-45.000000	-5.406945	2426.947952	427.678557	30.839926	72.795436	1457.890218	72.705403	18.208795	4.895313	16.148453	43.922998	-45.000000	-44.958115	-26.568144	802.189627	-2978.927205	136.440729	174.670274	8.972444	7.591311	12.997737	-20.630961	
9.6100	-40.584557	-2.034375	0.497665	-58.523086	848.728234	-4.816603	5.015583	-45.000000	45.000000	-45.000000	-5.324961	2427.432023	427.210354	30.775517	72.073277	1457.466694	69.741482	18.393834	5.316478	16.291927	44.016262	-45.000000	-44.924736	-26.476887	801.609244	-2979.172904	136.284650	175.356514	8.787329	7.360073	13.176750	-20.428149	
9.6200	-40.534988	-2.025753	0.511696	-54.006632	844.509585	-4.516893	4.893367	-45.000000	45.000000	-45.000000	-5.301931	2427.919202	426.746316	30.714287	71.365643	1456.978958	66.349442	18.551770	5.790324	16.403107	44.083430	-45.000000	-44.865836	-26.409426	801.044002	-2979.412156	136.121677	176.030586	8.589465	7.296753	13.347239	-20.232680	
9.6300	-40.473123	-2.000070	0.508174	-49.563707	840.344674	-4.187239	4.745182	-45.000000	45.000000	-45.000000	-5.253513	2428.403266	426.285149	30.639973	70.716547	1456.421957	62.500718	18.673742	6.314955	16.495551	44.126967	-45.000000	-44.757845	-26.269833	800.484829	-2979.648642	135.990528	176.689231	8.377556	7.362303	13.521376	-20.040570	
